<svg xmlns="http://www.w3.org/2000/svg" viewBox="0 0 800 800" width="800" height="800" role="img" aria-label="Adelaide Furniture product illustration"><defs>
<linearGradient id="bgg" x1="0" y1="0" x2="0" y2="1">
  <stop offset="0%" stop-color="#FAF6EE"/><stop offset="100%" stop-color="#EFE1C2" stop-opacity=".55"/>
</linearGradient>
<radialGradient id="glow" cx="50%" cy="42%" r="55%">
  <stop offset="0%" stop-color="#ffffff" stop-opacity=".85"/><stop offset="100%" stop-color="#ffffff" stop-opacity="0"/>
</radialGradient>
<linearGradient id="goldg" x1="0" y1="0" x2="1" y2="1">
  <stop offset="0%" stop-color="#D3AF5A"/><stop offset="55%" stop-color="#EDDCB4"/><stop offset="100%" stop-color="#D3AF5A"/>
</linearGradient>
<filter id="sh" x="-30%" y="-30%" width="160%" height="160%">
  <feDropShadow dx="0" dy="16" stdDeviation="18" flood-color="#16130f" flood-opacity=".16"/>
</filter>
</defs>
<rect width="800" height="800" fill="url(#bgg)"/><rect width="800" height="800" fill="url(#glow)"/><ellipse cx="400" cy="650" rx="170" ry="26" fill="#16130f" fill-opacity=".10"/>
<g filter="url(#sh)">
  <path d="M255 300 q145 -60 290 0 l0 150 q-145 -34 -290 0 z" fill="#69756C"/>
  <rect x="245" y="420" width="310" height="105" rx="30" fill="#8C9A90"/>
  <rect x="238" y="330" width="80" height="180" rx="34" fill="#8C9A90"/>
  <rect x="482" y="330" width="80" height="180" rx="34" fill="#8C9A90"/>
  <rect x="330" y="352" width="140" height="70" rx="18" fill="#FAF6EE" fill-opacity=".7"/>
  <rect x="278" y="520" width="20" height="70" rx="9" fill="url(#goldg)"/>
  <rect x="502" y="520" width="20" height="70" rx="9" fill="url(#goldg)"/>
  <rect x="300" y="520" width="18" height="62" rx="8" fill="#7F5C28" fill-opacity=".8"/>
  <rect x="482" y="520" width="18" height="62" rx="8" fill="#7F5C28" fill-opacity=".8"/>
</g></svg>